<?xml version="1.0" encoding="utf-8" standalone="no"?>
<!DOCTYPE svg PUBLIC "-//W3C//DTD SVG 1.1//EN"
  "http://www.w3.org/Graphics/SVG/1.1/DTD/svg11.dtd">
<svg xmlns:xlink="http://www.w3.org/1999/xlink" width="711.516875pt" height="385.144209pt" viewBox="0 0 711.516875 385.144209" xmlns="http://www.w3.org/2000/svg" version="1.1">
 <metadata>
  <rdf:RDF xmlns:dc="http://purl.org/dc/elements/1.1/" xmlns:cc="http://creativecommons.org/ns#" xmlns:rdf="http://www.w3.org/1999/02/22-rdf-syntax-ns#">
   <cc:Work>
    <dc:type rdf:resource="http://purl.org/dc/dcmitype/StillImage"/>
    <dc:date>2026-03-22T01:17:07.432268</dc:date>
    <dc:format>image/svg+xml</dc:format>
    <dc:creator>
     <cc:Agent>
      <dc:title>Matplotlib v3.10.8, https://matplotlib.org/</dc:title>
     </cc:Agent>
    </dc:creator>
   </cc:Work>
  </rdf:RDF>
 </metadata>
 <defs>
  <style type="text/css">*{stroke-linejoin: round; stroke-linecap: butt}</style>
 </defs>
 <g id="figure_1">
  <g id="patch_1">
   <path d="M 0 385.144209 
L 711.516875 385.144209 
L 711.516875 0 
L 0 0 
z
" style="fill: #ffffff"/>
  </g>
  <g id="axes_1">
   <g id="patch_2">
    <path d="M 45.716875 308.2032 
L 704.316875 308.2032 
L 704.316875 7.2 
L 45.716875 7.2 
z
" style="fill: #ffffff"/>
   </g>
   <g id="matplotlib.axis_1">
    <g id="xtick_1">
     <g id="line2d_1">
      <path d="M 75.653239 308.2032 
L 75.653239 7.2 
" clip-path="url(#p789bcc4268)" style="fill: none; stroke: #b0b0b0; stroke-opacity: 0.15; stroke-width: 0.8; stroke-linecap: square"/>
     </g>
     <g id="line2d_2">
      <defs>
       <path id="mbe9c268dd4" d="M 0 0 
L 0 3.5 
" style="stroke: #000000; stroke-width: 0.8"/>
      </defs>
      <g>
       <use xlink:href="#mbe9c268dd4" x="75.653239" y="308.2032" style="stroke: #000000; stroke-width: 0.8"/>
      </g>
     </g>
     <g id="text_1">
      <!-- Start -->
      <g transform="translate(62.21777 323.561481) scale(0.11 -0.11)">
       <defs>
        <path id="DejaVuSans-53" d="M 3425 4513 
L 3425 3897 
Q 3066 4069 2747 4153 
Q 2428 4238 2131 4238 
Q 1616 4238 1336 4038 
Q 1056 3838 1056 3469 
Q 1056 3159 1242 3001 
Q 1428 2844 1947 2747 
L 2328 2669 
Q 3034 2534 3370 2195 
Q 3706 1856 3706 1288 
Q 3706 609 3251 259 
Q 2797 -91 1919 -91 
Q 1588 -91 1214 -16 
Q 841 59 441 206 
L 441 856 
Q 825 641 1194 531 
Q 1563 422 1919 422 
Q 2459 422 2753 634 
Q 3047 847 3047 1241 
Q 3047 1584 2836 1778 
Q 2625 1972 2144 2069 
L 1759 2144 
Q 1053 2284 737 2584 
Q 422 2884 422 3419 
Q 422 4038 858 4394 
Q 1294 4750 2059 4750 
Q 2388 4750 2728 4690 
Q 3069 4631 3425 4513 
z
" transform="scale(0.015625)"/>
        <path id="DejaVuSans-74" d="M 1172 4494 
L 1172 3500 
L 2356 3500 
L 2356 3053 
L 1172 3053 
L 1172 1153 
Q 1172 725 1289 603 
Q 1406 481 1766 481 
L 2356 481 
L 2356 0 
L 1766 0 
Q 1100 0 847 248 
Q 594 497 594 1153 
L 594 3053 
L 172 3053 
L 172 3500 
L 594 3500 
L 594 4494 
L 1172 4494 
z
" transform="scale(0.015625)"/>
        <path id="DejaVuSans-61" d="M 2194 1759 
Q 1497 1759 1228 1600 
Q 959 1441 959 1056 
Q 959 750 1161 570 
Q 1363 391 1709 391 
Q 2188 391 2477 730 
Q 2766 1069 2766 1631 
L 2766 1759 
L 2194 1759 
z
M 3341 1997 
L 3341 0 
L 2766 0 
L 2766 531 
Q 2569 213 2275 61 
Q 1981 -91 1556 -91 
Q 1019 -91 701 211 
Q 384 513 384 1019 
Q 384 1609 779 1909 
Q 1175 2209 1959 2209 
L 2766 2209 
L 2766 2266 
Q 2766 2663 2505 2880 
Q 2244 3097 1772 3097 
Q 1472 3097 1187 3025 
Q 903 2953 641 2809 
L 641 3341 
Q 956 3463 1253 3523 
Q 1550 3584 1831 3584 
Q 2591 3584 2966 3190 
Q 3341 2797 3341 1997 
z
" transform="scale(0.015625)"/>
        <path id="DejaVuSans-72" d="M 2631 2963 
Q 2534 3019 2420 3045 
Q 2306 3072 2169 3072 
Q 1681 3072 1420 2755 
Q 1159 2438 1159 1844 
L 1159 0 
L 581 0 
L 581 3500 
L 1159 3500 
L 1159 2956 
Q 1341 3275 1631 3429 
Q 1922 3584 2338 3584 
Q 2397 3584 2469 3576 
Q 2541 3569 2628 3553 
L 2631 2963 
z
" transform="scale(0.015625)"/>
       </defs>
       <use xlink:href="#DejaVuSans-53"/>
       <use xlink:href="#DejaVuSans-74" transform="translate(63.476562 0)"/>
       <use xlink:href="#DejaVuSans-61" transform="translate(102.685547 0)"/>
       <use xlink:href="#DejaVuSans-72" transform="translate(163.964844 0)"/>
       <use xlink:href="#DejaVuSans-74" transform="translate(205.078125 0)"/>
      </g>
     </g>
    </g>
    <g id="xtick_2">
     <g id="line2d_3">
      <path d="M 175.441117 308.2032 
L 175.441117 7.2 
" clip-path="url(#p789bcc4268)" style="fill: none; stroke: #b0b0b0; stroke-opacity: 0.15; stroke-width: 0.8; stroke-linecap: square"/>
     </g>
     <g id="line2d_4">
      <g>
       <use xlink:href="#mbe9c268dd4" x="175.441117" y="308.2032" style="stroke: #000000; stroke-width: 0.8"/>
      </g>
     </g>
     <g id="text_2">
      <!-- Sprint 1 -->
      <g transform="translate(153.779711 323.561481) scale(0.11 -0.11)">
       <defs>
        <path id="DejaVuSans-70" d="M 1159 525 
L 1159 -1331 
L 581 -1331 
L 581 3500 
L 1159 3500 
L 1159 2969 
Q 1341 3281 1617 3432 
Q 1894 3584 2278 3584 
Q 2916 3584 3314 3078 
Q 3713 2572 3713 1747 
Q 3713 922 3314 415 
Q 2916 -91 2278 -91 
Q 1894 -91 1617 61 
Q 1341 213 1159 525 
z
M 3116 1747 
Q 3116 2381 2855 2742 
Q 2594 3103 2138 3103 
Q 1681 3103 1420 2742 
Q 1159 2381 1159 1747 
Q 1159 1113 1420 752 
Q 1681 391 2138 391 
Q 2594 391 2855 752 
Q 3116 1113 3116 1747 
z
" transform="scale(0.015625)"/>
        <path id="DejaVuSans-69" d="M 603 3500 
L 1178 3500 
L 1178 0 
L 603 0 
L 603 3500 
z
M 603 4863 
L 1178 4863 
L 1178 4134 
L 603 4134 
L 603 4863 
z
" transform="scale(0.015625)"/>
        <path id="DejaVuSans-6e" d="M 3513 2113 
L 3513 0 
L 2938 0 
L 2938 2094 
Q 2938 2591 2744 2837 
Q 2550 3084 2163 3084 
Q 1697 3084 1428 2787 
Q 1159 2491 1159 1978 
L 1159 0 
L 581 0 
L 581 3500 
L 1159 3500 
L 1159 2956 
Q 1366 3272 1645 3428 
Q 1925 3584 2291 3584 
Q 2894 3584 3203 3211 
Q 3513 2838 3513 2113 
z
" transform="scale(0.015625)"/>
        <path id="DejaVuSans-20" transform="scale(0.015625)"/>
        <path id="DejaVuSans-31" d="M 794 531 
L 1825 531 
L 1825 4091 
L 703 3866 
L 703 4441 
L 1819 4666 
L 2450 4666 
L 2450 531 
L 3481 531 
L 3481 0 
L 794 0 
L 794 531 
z
" transform="scale(0.015625)"/>
       </defs>
       <use xlink:href="#DejaVuSans-53"/>
       <use xlink:href="#DejaVuSans-70" transform="translate(63.476562 0)"/>
       <use xlink:href="#DejaVuSans-72" transform="translate(126.953125 0)"/>
       <use xlink:href="#DejaVuSans-69" transform="translate(168.066406 0)"/>
       <use xlink:href="#DejaVuSans-6e" transform="translate(195.849609 0)"/>
       <use xlink:href="#DejaVuSans-74" transform="translate(259.228516 0)"/>
       <use xlink:href="#DejaVuSans-20" transform="translate(298.4375 0)"/>
       <use xlink:href="#DejaVuSans-31" transform="translate(330.224609 0)"/>
      </g>
     </g>
    </g>
    <g id="xtick_3">
     <g id="line2d_5">
      <path d="M 275.228996 308.2032 
L 275.228996 7.2 
" clip-path="url(#p789bcc4268)" style="fill: none; stroke: #b0b0b0; stroke-opacity: 0.15; stroke-width: 0.8; stroke-linecap: square"/>
     </g>
     <g id="line2d_6">
      <g>
       <use xlink:href="#mbe9c268dd4" x="275.228996" y="308.2032" style="stroke: #000000; stroke-width: 0.8"/>
      </g>
     </g>
     <g id="text_3">
      <!-- Sprint 2 -->
      <g transform="translate(253.56759 323.561481) scale(0.11 -0.11)">
       <defs>
        <path id="DejaVuSans-32" d="M 1228 531 
L 3431 531 
L 3431 0 
L 469 0 
L 469 531 
Q 828 903 1448 1529 
Q 2069 2156 2228 2338 
Q 2531 2678 2651 2914 
Q 2772 3150 2772 3378 
Q 2772 3750 2511 3984 
Q 2250 4219 1831 4219 
Q 1534 4219 1204 4116 
Q 875 4013 500 3803 
L 500 4441 
Q 881 4594 1212 4672 
Q 1544 4750 1819 4750 
Q 2544 4750 2975 4387 
Q 3406 4025 3406 3419 
Q 3406 3131 3298 2873 
Q 3191 2616 2906 2266 
Q 2828 2175 2409 1742 
Q 1991 1309 1228 531 
z
" transform="scale(0.015625)"/>
       </defs>
       <use xlink:href="#DejaVuSans-53"/>
       <use xlink:href="#DejaVuSans-70" transform="translate(63.476562 0)"/>
       <use xlink:href="#DejaVuSans-72" transform="translate(126.953125 0)"/>
       <use xlink:href="#DejaVuSans-69" transform="translate(168.066406 0)"/>
       <use xlink:href="#DejaVuSans-6e" transform="translate(195.849609 0)"/>
       <use xlink:href="#DejaVuSans-74" transform="translate(259.228516 0)"/>
       <use xlink:href="#DejaVuSans-20" transform="translate(298.4375 0)"/>
       <use xlink:href="#DejaVuSans-32" transform="translate(330.224609 0)"/>
      </g>
     </g>
    </g>
    <g id="xtick_4">
     <g id="line2d_7">
      <path d="M 375.016875 308.2032 
L 375.016875 7.2 
" clip-path="url(#p789bcc4268)" style="fill: none; stroke: #b0b0b0; stroke-opacity: 0.15; stroke-width: 0.8; stroke-linecap: square"/>
     </g>
     <g id="line2d_8">
      <g>
       <use xlink:href="#mbe9c268dd4" x="375.016875" y="308.2032" style="stroke: #000000; stroke-width: 0.8"/>
      </g>
     </g>
     <g id="text_4">
      <!-- Sprint 3 -->
      <g transform="translate(353.355469 323.561481) scale(0.11 -0.11)">
       <defs>
        <path id="DejaVuSans-33" d="M 2597 2516 
Q 3050 2419 3304 2112 
Q 3559 1806 3559 1356 
Q 3559 666 3084 287 
Q 2609 -91 1734 -91 
Q 1441 -91 1130 -33 
Q 819 25 488 141 
L 488 750 
Q 750 597 1062 519 
Q 1375 441 1716 441 
Q 2309 441 2620 675 
Q 2931 909 2931 1356 
Q 2931 1769 2642 2001 
Q 2353 2234 1838 2234 
L 1294 2234 
L 1294 2753 
L 1863 2753 
Q 2328 2753 2575 2939 
Q 2822 3125 2822 3475 
Q 2822 3834 2567 4026 
Q 2313 4219 1838 4219 
Q 1578 4219 1281 4162 
Q 984 4106 628 3988 
L 628 4550 
Q 988 4650 1302 4700 
Q 1616 4750 1894 4750 
Q 2613 4750 3031 4423 
Q 3450 4097 3450 3541 
Q 3450 3153 3228 2886 
Q 3006 2619 2597 2516 
z
" transform="scale(0.015625)"/>
       </defs>
       <use xlink:href="#DejaVuSans-53"/>
       <use xlink:href="#DejaVuSans-70" transform="translate(63.476562 0)"/>
       <use xlink:href="#DejaVuSans-72" transform="translate(126.953125 0)"/>
       <use xlink:href="#DejaVuSans-69" transform="translate(168.066406 0)"/>
       <use xlink:href="#DejaVuSans-6e" transform="translate(195.849609 0)"/>
       <use xlink:href="#DejaVuSans-74" transform="translate(259.228516 0)"/>
       <use xlink:href="#DejaVuSans-20" transform="translate(298.4375 0)"/>
       <use xlink:href="#DejaVuSans-33" transform="translate(330.224609 0)"/>
      </g>
     </g>
    </g>
    <g id="xtick_5">
     <g id="line2d_9">
      <path d="M 474.804754 308.2032 
L 474.804754 7.2 
" clip-path="url(#p789bcc4268)" style="fill: none; stroke: #b0b0b0; stroke-opacity: 0.15; stroke-width: 0.8; stroke-linecap: square"/>
     </g>
     <g id="line2d_10">
      <g>
       <use xlink:href="#mbe9c268dd4" x="474.804754" y="308.2032" style="stroke: #000000; stroke-width: 0.8"/>
      </g>
     </g>
     <g id="text_5">
      <!-- Sprint 4 -->
      <g transform="translate(453.143348 323.561481) scale(0.11 -0.11)">
       <defs>
        <path id="DejaVuSans-34" d="M 2419 4116 
L 825 1625 
L 2419 1625 
L 2419 4116 
z
M 2253 4666 
L 3047 4666 
L 3047 1625 
L 3713 1625 
L 3713 1100 
L 3047 1100 
L 3047 0 
L 2419 0 
L 2419 1100 
L 313 1100 
L 313 1709 
L 2253 4666 
z
" transform="scale(0.015625)"/>
       </defs>
       <use xlink:href="#DejaVuSans-53"/>
       <use xlink:href="#DejaVuSans-70" transform="translate(63.476562 0)"/>
       <use xlink:href="#DejaVuSans-72" transform="translate(126.953125 0)"/>
       <use xlink:href="#DejaVuSans-69" transform="translate(168.066406 0)"/>
       <use xlink:href="#DejaVuSans-6e" transform="translate(195.849609 0)"/>
       <use xlink:href="#DejaVuSans-74" transform="translate(259.228516 0)"/>
       <use xlink:href="#DejaVuSans-20" transform="translate(298.4375 0)"/>
       <use xlink:href="#DejaVuSans-34" transform="translate(330.224609 0)"/>
      </g>
     </g>
    </g>
    <g id="xtick_6">
     <g id="line2d_11">
      <path d="M 574.592633 308.2032 
L 574.592633 7.2 
" clip-path="url(#p789bcc4268)" style="fill: none; stroke: #b0b0b0; stroke-opacity: 0.15; stroke-width: 0.8; stroke-linecap: square"/>
     </g>
     <g id="line2d_12">
      <g>
       <use xlink:href="#mbe9c268dd4" x="574.592633" y="308.2032" style="stroke: #000000; stroke-width: 0.8"/>
      </g>
     </g>
     <g id="text_6">
      <!-- Sprint 5 -->
      <g transform="translate(552.931226 323.561481) scale(0.11 -0.11)">
       <defs>
        <path id="DejaVuSans-35" d="M 691 4666 
L 3169 4666 
L 3169 4134 
L 1269 4134 
L 1269 2991 
Q 1406 3038 1543 3061 
Q 1681 3084 1819 3084 
Q 2600 3084 3056 2656 
Q 3513 2228 3513 1497 
Q 3513 744 3044 326 
Q 2575 -91 1722 -91 
Q 1428 -91 1123 -41 
Q 819 9 494 109 
L 494 744 
Q 775 591 1075 516 
Q 1375 441 1709 441 
Q 2250 441 2565 725 
Q 2881 1009 2881 1497 
Q 2881 1984 2565 2268 
Q 2250 2553 1709 2553 
Q 1456 2553 1204 2497 
Q 953 2441 691 2322 
L 691 4666 
z
" transform="scale(0.015625)"/>
       </defs>
       <use xlink:href="#DejaVuSans-53"/>
       <use xlink:href="#DejaVuSans-70" transform="translate(63.476562 0)"/>
       <use xlink:href="#DejaVuSans-72" transform="translate(126.953125 0)"/>
       <use xlink:href="#DejaVuSans-69" transform="translate(168.066406 0)"/>
       <use xlink:href="#DejaVuSans-6e" transform="translate(195.849609 0)"/>
       <use xlink:href="#DejaVuSans-74" transform="translate(259.228516 0)"/>
       <use xlink:href="#DejaVuSans-20" transform="translate(298.4375 0)"/>
       <use xlink:href="#DejaVuSans-35" transform="translate(330.224609 0)"/>
      </g>
     </g>
    </g>
    <g id="xtick_7">
     <g id="line2d_13">
      <path d="M 674.380511 308.2032 
L 674.380511 7.2 
" clip-path="url(#p789bcc4268)" style="fill: none; stroke: #b0b0b0; stroke-opacity: 0.15; stroke-width: 0.8; stroke-linecap: square"/>
     </g>
     <g id="line2d_14">
      <g>
       <use xlink:href="#mbe9c268dd4" x="674.380511" y="308.2032" style="stroke: #000000; stroke-width: 0.8"/>
      </g>
     </g>
     <g id="text_7">
      <!-- Sprint 6 -->
      <g transform="translate(652.719105 323.561481) scale(0.11 -0.11)">
       <defs>
        <path id="DejaVuSans-36" d="M 2113 2584 
Q 1688 2584 1439 2293 
Q 1191 2003 1191 1497 
Q 1191 994 1439 701 
Q 1688 409 2113 409 
Q 2538 409 2786 701 
Q 3034 994 3034 1497 
Q 3034 2003 2786 2293 
Q 2538 2584 2113 2584 
z
M 3366 4563 
L 3366 3988 
Q 3128 4100 2886 4159 
Q 2644 4219 2406 4219 
Q 1781 4219 1451 3797 
Q 1122 3375 1075 2522 
Q 1259 2794 1537 2939 
Q 1816 3084 2150 3084 
Q 2853 3084 3261 2657 
Q 3669 2231 3669 1497 
Q 3669 778 3244 343 
Q 2819 -91 2113 -91 
Q 1303 -91 875 529 
Q 447 1150 447 2328 
Q 447 3434 972 4092 
Q 1497 4750 2381 4750 
Q 2619 4750 2861 4703 
Q 3103 4656 3366 4563 
z
" transform="scale(0.015625)"/>
       </defs>
       <use xlink:href="#DejaVuSans-53"/>
       <use xlink:href="#DejaVuSans-70" transform="translate(63.476562 0)"/>
       <use xlink:href="#DejaVuSans-72" transform="translate(126.953125 0)"/>
       <use xlink:href="#DejaVuSans-69" transform="translate(168.066406 0)"/>
       <use xlink:href="#DejaVuSans-6e" transform="translate(195.849609 0)"/>
       <use xlink:href="#DejaVuSans-74" transform="translate(259.228516 0)"/>
       <use xlink:href="#DejaVuSans-20" transform="translate(298.4375 0)"/>
       <use xlink:href="#DejaVuSans-36" transform="translate(330.224609 0)"/>
      </g>
     </g>
    </g>
    <g id="text_8">
     <!-- Sprint number -->
     <g transform="translate(331.786875 338.967262) scale(0.12 -0.12)">
      <defs>
       <path id="DejaVuSans-75" d="M 544 1381 
L 544 3500 
L 1119 3500 
L 1119 1403 
Q 1119 906 1312 657 
Q 1506 409 1894 409 
Q 2359 409 2629 706 
Q 2900 1003 2900 1516 
L 2900 3500 
L 3475 3500 
L 3475 0 
L 2900 0 
L 2900 538 
Q 2691 219 2414 64 
Q 2138 -91 1772 -91 
Q 1169 -91 856 284 
Q 544 659 544 1381 
z
M 1991 3584 
L 1991 3584 
z
" transform="scale(0.015625)"/>
       <path id="DejaVuSans-6d" d="M 3328 2828 
Q 3544 3216 3844 3400 
Q 4144 3584 4550 3584 
Q 5097 3584 5394 3201 
Q 5691 2819 5691 2113 
L 5691 0 
L 5113 0 
L 5113 2094 
Q 5113 2597 4934 2840 
Q 4756 3084 4391 3084 
Q 3944 3084 3684 2787 
Q 3425 2491 3425 1978 
L 3425 0 
L 2847 0 
L 2847 2094 
Q 2847 2600 2669 2842 
Q 2491 3084 2119 3084 
Q 1678 3084 1418 2786 
Q 1159 2488 1159 1978 
L 1159 0 
L 581 0 
L 581 3500 
L 1159 3500 
L 1159 2956 
Q 1356 3278 1631 3431 
Q 1906 3584 2284 3584 
Q 2666 3584 2933 3390 
Q 3200 3197 3328 2828 
z
" transform="scale(0.015625)"/>
       <path id="DejaVuSans-62" d="M 3116 1747 
Q 3116 2381 2855 2742 
Q 2594 3103 2138 3103 
Q 1681 3103 1420 2742 
Q 1159 2381 1159 1747 
Q 1159 1113 1420 752 
Q 1681 391 2138 391 
Q 2594 391 2855 752 
Q 3116 1113 3116 1747 
z
M 1159 2969 
Q 1341 3281 1617 3432 
Q 1894 3584 2278 3584 
Q 2916 3584 3314 3078 
Q 3713 2572 3713 1747 
Q 3713 922 3314 415 
Q 2916 -91 2278 -91 
Q 1894 -91 1617 61 
Q 1341 213 1159 525 
L 1159 0 
L 581 0 
L 581 4863 
L 1159 4863 
L 1159 2969 
z
" transform="scale(0.015625)"/>
       <path id="DejaVuSans-65" d="M 3597 1894 
L 3597 1613 
L 953 1613 
Q 991 1019 1311 708 
Q 1631 397 2203 397 
Q 2534 397 2845 478 
Q 3156 559 3463 722 
L 3463 178 
Q 3153 47 2828 -22 
Q 2503 -91 2169 -91 
Q 1331 -91 842 396 
Q 353 884 353 1716 
Q 353 2575 817 3079 
Q 1281 3584 2069 3584 
Q 2775 3584 3186 3129 
Q 3597 2675 3597 1894 
z
M 3022 2063 
Q 3016 2534 2758 2815 
Q 2500 3097 2075 3097 
Q 1594 3097 1305 2825 
Q 1016 2553 972 2059 
L 3022 2063 
z
" transform="scale(0.015625)"/>
      </defs>
      <use xlink:href="#DejaVuSans-53"/>
      <use xlink:href="#DejaVuSans-70" transform="translate(63.476562 0)"/>
      <use xlink:href="#DejaVuSans-72" transform="translate(126.953125 0)"/>
      <use xlink:href="#DejaVuSans-69" transform="translate(168.066406 0)"/>
      <use xlink:href="#DejaVuSans-6e" transform="translate(195.849609 0)"/>
      <use xlink:href="#DejaVuSans-74" transform="translate(259.228516 0)"/>
      <use xlink:href="#DejaVuSans-20" transform="translate(298.4375 0)"/>
      <use xlink:href="#DejaVuSans-6e" transform="translate(330.224609 0)"/>
      <use xlink:href="#DejaVuSans-75" transform="translate(393.603516 0)"/>
      <use xlink:href="#DejaVuSans-6d" transform="translate(456.982422 0)"/>
      <use xlink:href="#DejaVuSans-62" transform="translate(554.394531 0)"/>
      <use xlink:href="#DejaVuSans-65" transform="translate(617.871094 0)"/>
      <use xlink:href="#DejaVuSans-72" transform="translate(679.394531 0)"/>
     </g>
    </g>
   </g>
   <g id="matplotlib.axis_2">
    <g id="ytick_1">
     <g id="line2d_15">
      <path d="M 45.716875 308.2032 
L 704.316875 308.2032 
" clip-path="url(#p789bcc4268)" style="fill: none; stroke: #b0b0b0; stroke-opacity: 0.15; stroke-width: 0.8; stroke-linecap: square"/>
     </g>
     <g id="line2d_16">
      <defs>
       <path id="m088b8aa5a9" d="M 0 0 
L -3.5 0 
" style="stroke: #000000; stroke-width: 0.8"/>
      </defs>
      <g>
       <use xlink:href="#m088b8aa5a9" x="45.716875" y="308.2032" style="stroke: #000000; stroke-width: 0.8"/>
      </g>
     </g>
     <g id="text_9">
      <!-- 0.0 -->
      <g transform="translate(22.81375 312.002419) scale(0.1 -0.1)">
       <defs>
        <path id="DejaVuSans-30" d="M 2034 4250 
Q 1547 4250 1301 3770 
Q 1056 3291 1056 2328 
Q 1056 1369 1301 889 
Q 1547 409 2034 409 
Q 2525 409 2770 889 
Q 3016 1369 3016 2328 
Q 3016 3291 2770 3770 
Q 2525 4250 2034 4250 
z
M 2034 4750 
Q 2819 4750 3233 4129 
Q 3647 3509 3647 2328 
Q 3647 1150 3233 529 
Q 2819 -91 2034 -91 
Q 1250 -91 836 529 
Q 422 1150 422 2328 
Q 422 3509 836 4129 
Q 1250 4750 2034 4750 
z
" transform="scale(0.015625)"/>
        <path id="DejaVuSans-2e" d="M 684 794 
L 1344 794 
L 1344 0 
L 684 0 
L 684 794 
z
" transform="scale(0.015625)"/>
       </defs>
       <use xlink:href="#DejaVuSans-30"/>
       <use xlink:href="#DejaVuSans-2e" transform="translate(63.623047 0)"/>
       <use xlink:href="#DejaVuSans-30" transform="translate(95.410156 0)"/>
      </g>
     </g>
    </g>
    <g id="ytick_2">
     <g id="line2d_17">
      <path d="M 45.716875 252.461867 
L 704.316875 252.461867 
" clip-path="url(#p789bcc4268)" style="fill: none; stroke: #b0b0b0; stroke-opacity: 0.15; stroke-width: 0.8; stroke-linecap: square"/>
     </g>
     <g id="line2d_18">
      <g>
       <use xlink:href="#m088b8aa5a9" x="45.716875" y="252.461867" style="stroke: #000000; stroke-width: 0.8"/>
      </g>
     </g>
     <g id="text_10">
      <!-- 0.2 -->
      <g transform="translate(22.81375 256.261085) scale(0.1 -0.1)">
       <use xlink:href="#DejaVuSans-30"/>
       <use xlink:href="#DejaVuSans-2e" transform="translate(63.623047 0)"/>
       <use xlink:href="#DejaVuSans-32" transform="translate(95.410156 0)"/>
      </g>
     </g>
    </g>
    <g id="ytick_3">
     <g id="line2d_19">
      <path d="M 45.716875 196.720533 
L 704.316875 196.720533 
" clip-path="url(#p789bcc4268)" style="fill: none; stroke: #b0b0b0; stroke-opacity: 0.15; stroke-width: 0.8; stroke-linecap: square"/>
     </g>
     <g id="line2d_20">
      <g>
       <use xlink:href="#m088b8aa5a9" x="45.716875" y="196.720533" style="stroke: #000000; stroke-width: 0.8"/>
      </g>
     </g>
     <g id="text_11">
      <!-- 0.4 -->
      <g transform="translate(22.81375 200.519752) scale(0.1 -0.1)">
       <use xlink:href="#DejaVuSans-30"/>
       <use xlink:href="#DejaVuSans-2e" transform="translate(63.623047 0)"/>
       <use xlink:href="#DejaVuSans-34" transform="translate(95.410156 0)"/>
      </g>
     </g>
    </g>
    <g id="ytick_4">
     <g id="line2d_21">
      <path d="M 45.716875 140.9792 
L 704.316875 140.9792 
" clip-path="url(#p789bcc4268)" style="fill: none; stroke: #b0b0b0; stroke-opacity: 0.15; stroke-width: 0.8; stroke-linecap: square"/>
     </g>
     <g id="line2d_22">
      <g>
       <use xlink:href="#m088b8aa5a9" x="45.716875" y="140.9792" style="stroke: #000000; stroke-width: 0.8"/>
      </g>
     </g>
     <g id="text_12">
      <!-- 0.6 -->
      <g transform="translate(22.81375 144.778419) scale(0.1 -0.1)">
       <use xlink:href="#DejaVuSans-30"/>
       <use xlink:href="#DejaVuSans-2e" transform="translate(63.623047 0)"/>
       <use xlink:href="#DejaVuSans-36" transform="translate(95.410156 0)"/>
      </g>
     </g>
    </g>
    <g id="ytick_5">
     <g id="line2d_23">
      <path d="M 45.716875 85.237867 
L 704.316875 85.237867 
" clip-path="url(#p789bcc4268)" style="fill: none; stroke: #b0b0b0; stroke-opacity: 0.15; stroke-width: 0.8; stroke-linecap: square"/>
     </g>
     <g id="line2d_24">
      <g>
       <use xlink:href="#m088b8aa5a9" x="45.716875" y="85.237867" style="stroke: #000000; stroke-width: 0.8"/>
      </g>
     </g>
     <g id="text_13">
      <!-- 0.8 -->
      <g transform="translate(22.81375 89.037085) scale(0.1 -0.1)">
       <defs>
        <path id="DejaVuSans-38" d="M 2034 2216 
Q 1584 2216 1326 1975 
Q 1069 1734 1069 1313 
Q 1069 891 1326 650 
Q 1584 409 2034 409 
Q 2484 409 2743 651 
Q 3003 894 3003 1313 
Q 3003 1734 2745 1975 
Q 2488 2216 2034 2216 
z
M 1403 2484 
Q 997 2584 770 2862 
Q 544 3141 544 3541 
Q 544 4100 942 4425 
Q 1341 4750 2034 4750 
Q 2731 4750 3128 4425 
Q 3525 4100 3525 3541 
Q 3525 3141 3298 2862 
Q 3072 2584 2669 2484 
Q 3125 2378 3379 2068 
Q 3634 1759 3634 1313 
Q 3634 634 3220 271 
Q 2806 -91 2034 -91 
Q 1263 -91 848 271 
Q 434 634 434 1313 
Q 434 1759 690 2068 
Q 947 2378 1403 2484 
z
M 1172 3481 
Q 1172 3119 1398 2916 
Q 1625 2713 2034 2713 
Q 2441 2713 2670 2916 
Q 2900 3119 2900 3481 
Q 2900 3844 2670 4047 
Q 2441 4250 2034 4250 
Q 1625 4250 1398 4047 
Q 1172 3844 1172 3481 
z
" transform="scale(0.015625)"/>
       </defs>
       <use xlink:href="#DejaVuSans-30"/>
       <use xlink:href="#DejaVuSans-2e" transform="translate(63.623047 0)"/>
       <use xlink:href="#DejaVuSans-38" transform="translate(95.410156 0)"/>
      </g>
     </g>
    </g>
    <g id="ytick_6">
     <g id="line2d_25">
      <path d="M 45.716875 29.496533 
L 704.316875 29.496533 
" clip-path="url(#p789bcc4268)" style="fill: none; stroke: #b0b0b0; stroke-opacity: 0.15; stroke-width: 0.8; stroke-linecap: square"/>
     </g>
     <g id="line2d_26">
      <g>
       <use xlink:href="#m088b8aa5a9" x="45.716875" y="29.496533" style="stroke: #000000; stroke-width: 0.8"/>
      </g>
     </g>
     <g id="text_14">
      <!-- 1.0 -->
      <g transform="translate(22.81375 33.295752) scale(0.1 -0.1)">
       <use xlink:href="#DejaVuSans-31"/>
       <use xlink:href="#DejaVuSans-2e" transform="translate(63.623047 0)"/>
       <use xlink:href="#DejaVuSans-30" transform="translate(95.410156 0)"/>
      </g>
     </g>
    </g>
    <g id="text_15">
     <!-- Skill level -->
     <g transform="translate(16.318125 186.161287) rotate(-90) scale(0.12 -0.12)">
      <defs>
       <path id="DejaVuSans-6b" d="M 581 4863 
L 1159 4863 
L 1159 1991 
L 2875 3500 
L 3609 3500 
L 1753 1863 
L 3688 0 
L 2938 0 
L 1159 1709 
L 1159 0 
L 581 0 
L 581 4863 
z
" transform="scale(0.015625)"/>
       <path id="DejaVuSans-6c" d="M 603 4863 
L 1178 4863 
L 1178 0 
L 603 0 
L 603 4863 
z
" transform="scale(0.015625)"/>
       <path id="DejaVuSans-76" d="M 191 3500 
L 800 3500 
L 1894 563 
L 2988 3500 
L 3597 3500 
L 2284 0 
L 1503 0 
L 191 3500 
z
" transform="scale(0.015625)"/>
      </defs>
      <use xlink:href="#DejaVuSans-53"/>
      <use xlink:href="#DejaVuSans-6b" transform="translate(63.476562 0)"/>
      <use xlink:href="#DejaVuSans-69" transform="translate(121.386719 0)"/>
      <use xlink:href="#DejaVuSans-6c" transform="translate(149.169922 0)"/>
      <use xlink:href="#DejaVuSans-6c" transform="translate(176.953125 0)"/>
      <use xlink:href="#DejaVuSans-20" transform="translate(204.736328 0)"/>
      <use xlink:href="#DejaVuSans-6c" transform="translate(236.523438 0)"/>
      <use xlink:href="#DejaVuSans-65" transform="translate(264.306641 0)"/>
      <use xlink:href="#DejaVuSans-76" transform="translate(325.830078 0)"/>
      <use xlink:href="#DejaVuSans-65" transform="translate(385.009766 0)"/>
      <use xlink:href="#DejaVuSans-6c" transform="translate(446.533203 0)"/>
     </g>
    </g>
   </g>
   <g id="line2d_27">
    <path d="M 75.653239 238.526533 
L 175.441117 205.081733 
L 275.228996 179.998133 
L 375.016875 157.7016 
L 474.804754 135.405067 
L 574.592633 118.682667 
L 674.380511 104.747333 
" clip-path="url(#p789bcc4268)" style="fill: none; stroke: #0f6e56; stroke-width: 2.5; stroke-linecap: square"/>
    <defs>
     <path id="m0d916b904c" d="M 0 3 
C 0.795609 3 1.55874 2.683901 2.12132 2.12132 
C 2.683901 1.55874 3 0.795609 3 0 
C 3 -0.795609 2.683901 -1.55874 2.12132 -2.12132 
C 1.55874 -2.683901 0.795609 -3 0 -3 
C -0.795609 -3 -1.55874 -2.683901 -2.12132 -2.12132 
C -2.683901 -1.55874 -3 -0.795609 -3 0 
C -3 0.795609 -2.683901 1.55874 -2.12132 2.12132 
C -1.55874 2.683901 -0.795609 3 0 3 
z
" style="stroke: #0f6e56"/>
    </defs>
    <g clip-path="url(#p789bcc4268)">
     <use xlink:href="#m0d916b904c" x="75.653239" y="238.526533" style="fill: #0f6e56; stroke: #0f6e56"/>
     <use xlink:href="#m0d916b904c" x="175.441117" y="205.081733" style="fill: #0f6e56; stroke: #0f6e56"/>
     <use xlink:href="#m0d916b904c" x="275.228996" y="179.998133" style="fill: #0f6e56; stroke: #0f6e56"/>
     <use xlink:href="#m0d916b904c" x="375.016875" y="157.7016" style="fill: #0f6e56; stroke: #0f6e56"/>
     <use xlink:href="#m0d916b904c" x="474.804754" y="135.405067" style="fill: #0f6e56; stroke: #0f6e56"/>
     <use xlink:href="#m0d916b904c" x="574.592633" y="118.682667" style="fill: #0f6e56; stroke: #0f6e56"/>
     <use xlink:href="#m0d916b904c" x="674.380511" y="104.747333" style="fill: #0f6e56; stroke: #0f6e56"/>
    </g>
   </g>
   <g id="line2d_28">
    <path d="M 75.653239 168.849867 
L 175.441117 143.766267 
L 275.228996 124.2568 
L 375.016875 107.5344 
L 474.804754 93.599067 
L 574.592633 82.4508 
L 674.380511 71.302533 
" clip-path="url(#p789bcc4268)" style="fill: none; stroke: #185fa5; stroke-width: 2.5; stroke-linecap: square"/>
    <defs>
     <path id="mb644c65e3e" d="M 0 3 
C 0.795609 3 1.55874 2.683901 2.12132 2.12132 
C 2.683901 1.55874 3 0.795609 3 0 
C 3 -0.795609 2.683901 -1.55874 2.12132 -2.12132 
C 1.55874 -2.683901 0.795609 -3 0 -3 
C -0.795609 -3 -1.55874 -2.683901 -2.12132 -2.12132 
C -2.683901 -1.55874 -3 -0.795609 -3 0 
C -3 0.795609 -2.683901 1.55874 -2.12132 2.12132 
C -1.55874 2.683901 -0.795609 3 0 3 
z
" style="stroke: #185fa5"/>
    </defs>
    <g clip-path="url(#p789bcc4268)">
     <use xlink:href="#mb644c65e3e" x="75.653239" y="168.849867" style="fill: #185fa5; stroke: #185fa5"/>
     <use xlink:href="#mb644c65e3e" x="175.441117" y="143.766267" style="fill: #185fa5; stroke: #185fa5"/>
     <use xlink:href="#mb644c65e3e" x="275.228996" y="124.2568" style="fill: #185fa5; stroke: #185fa5"/>
     <use xlink:href="#mb644c65e3e" x="375.016875" y="107.5344" style="fill: #185fa5; stroke: #185fa5"/>
     <use xlink:href="#mb644c65e3e" x="474.804754" y="93.599067" style="fill: #185fa5; stroke: #185fa5"/>
     <use xlink:href="#mb644c65e3e" x="574.592633" y="82.4508" style="fill: #185fa5; stroke: #185fa5"/>
     <use xlink:href="#mb644c65e3e" x="674.380511" y="71.302533" style="fill: #185fa5; stroke: #185fa5"/>
    </g>
   </g>
   <g id="line2d_29">
    <path d="M 75.653239 99.1732 
L 175.441117 85.237867 
L 275.228996 76.876667 
L 375.016875 68.515467 
L 474.804754 60.154267 
L 574.592633 54.580133 
L 674.380511 51.793067 
" clip-path="url(#p789bcc4268)" style="fill: none; stroke: #534ab7; stroke-width: 2.5; stroke-linecap: square"/>
    <defs>
     <path id="m487aa5f052" d="M 0 3 
C 0.795609 3 1.55874 2.683901 2.12132 2.12132 
C 2.683901 1.55874 3 0.795609 3 0 
C 3 -0.795609 2.683901 -1.55874 2.12132 -2.12132 
C 1.55874 -2.683901 0.795609 -3 0 -3 
C -0.795609 -3 -1.55874 -2.683901 -2.12132 -2.12132 
C -2.683901 -1.55874 -3 -0.795609 -3 0 
C -3 0.795609 -2.683901 1.55874 -2.12132 2.12132 
C -1.55874 2.683901 -0.795609 3 0 3 
z
" style="stroke: #534ab7"/>
    </defs>
    <g clip-path="url(#p789bcc4268)">
     <use xlink:href="#m487aa5f052" x="75.653239" y="99.1732" style="fill: #534ab7; stroke: #534ab7"/>
     <use xlink:href="#m487aa5f052" x="175.441117" y="85.237867" style="fill: #534ab7; stroke: #534ab7"/>
     <use xlink:href="#m487aa5f052" x="275.228996" y="76.876667" style="fill: #534ab7; stroke: #534ab7"/>
     <use xlink:href="#m487aa5f052" x="375.016875" y="68.515467" style="fill: #534ab7; stroke: #534ab7"/>
     <use xlink:href="#m487aa5f052" x="474.804754" y="60.154267" style="fill: #534ab7; stroke: #534ab7"/>
     <use xlink:href="#m487aa5f052" x="574.592633" y="54.580133" style="fill: #534ab7; stroke: #534ab7"/>
     <use xlink:href="#m487aa5f052" x="674.380511" y="51.793067" style="fill: #534ab7; stroke: #534ab7"/>
    </g>
   </g>
   <g id="line2d_30">
    <path d="M 75.653239 238.526533 
L 175.441117 224.5912 
L 275.228996 213.442933 
L 375.016875 205.081733 
L 474.804754 196.720533 
L 574.592633 188.359333 
L 674.380511 182.7852 
" clip-path="url(#p789bcc4268)" style="fill: none; stroke-dasharray: 5.55,2.4; stroke-dashoffset: 0; stroke: #5dcaa5; stroke-width: 1.5"/>
   </g>
   <g id="line2d_31">
    <path d="M 75.653239 168.849867 
L 175.441117 160.488667 
L 275.228996 152.127467 
L 375.016875 146.553333 
L 474.804754 140.9792 
L 574.592633 135.405067 
L 674.380511 129.830933 
" clip-path="url(#p789bcc4268)" style="fill: none; stroke-dasharray: 5.55,2.4; stroke-dashoffset: 0; stroke: #85b7eb; stroke-width: 1.5"/>
   </g>
   <g id="line2d_32">
    <path d="M 75.653239 99.1732 
L 175.441117 93.599067 
L 275.228996 90.812 
L 375.016875 88.024933 
L 474.804754 85.237867 
L 574.592633 82.4508 
L 674.380511 79.663733 
" clip-path="url(#p789bcc4268)" style="fill: none; stroke-dasharray: 5.55,2.4; stroke-dashoffset: 0; stroke: #afa9ec; stroke-width: 1.5"/>
   </g>
   <g id="patch_3">
    <path d="M 45.716875 308.2032 
L 45.716875 7.2 
" style="fill: none; stroke: #000000; stroke-width: 0.8; stroke-linejoin: miter; stroke-linecap: square"/>
   </g>
   <g id="patch_4">
    <path d="M 704.316875 308.2032 
L 704.316875 7.2 
" style="fill: none; stroke: #000000; stroke-width: 0.8; stroke-linejoin: miter; stroke-linecap: square"/>
   </g>
   <g id="patch_5">
    <path d="M 45.716875 308.2032 
L 704.316875 308.2032 
" style="fill: none; stroke: #000000; stroke-width: 0.8; stroke-linejoin: miter; stroke-linecap: square"/>
   </g>
   <g id="patch_6">
    <path d="M 45.716875 7.2 
L 704.316875 7.2 
" style="fill: none; stroke: #000000; stroke-width: 0.8; stroke-linejoin: miter; stroke-linecap: square"/>
   </g>
   <g id="patch_7">
    <path d="M 496.684668 32.207774 
Q 574.559754 41.876996 651.547229 51.43601 
" style="fill: none; stroke: #ba7517; stroke-width: 0.8; stroke-linecap: round"/>
    <path d="M 648.196453 49.206145 
L 651.547229 51.43601 
L 647.752871 52.778712 
" style="fill: none; stroke: #ba7517; stroke-width: 0.8; stroke-linecap: round"/>
   </g>
   <g id="text_16">
    <!-- Skill stabilization -->
    <g style="fill: #854f0b" transform="translate(416.991631 29.496533) scale(0.09 -0.09)">
     <defs>
      <path id="DejaVuSans-Oblique-53" d="M 3859 4513 
L 3738 3897 
Q 3422 4066 3111 4152 
Q 2800 4238 2509 4238 
Q 1944 4238 1609 3991 
Q 1275 3744 1275 3334 
Q 1275 3109 1398 2989 
Q 1522 2869 2034 2731 
L 2413 2638 
Q 3053 2472 3303 2217 
Q 3553 1963 3553 1503 
Q 3553 797 2998 353 
Q 2444 -91 1538 -91 
Q 1166 -91 791 -17 
Q 416 56 38 206 
L 166 856 
Q 513 641 861 531 
Q 1209 422 1556 422 
Q 2147 422 2503 684 
Q 2859 947 2859 1369 
Q 2859 1650 2717 1795 
Q 2575 1941 2106 2059 
L 1728 2156 
Q 1081 2325 845 2545 
Q 609 2766 609 3163 
Q 609 3859 1145 4304 
Q 1681 4750 2541 4750 
Q 2875 4750 3203 4690 
Q 3531 4631 3859 4513 
z
" transform="scale(0.015625)"/>
      <path id="DejaVuSans-Oblique-6b" d="M 1172 4863 
L 1747 4863 
L 1197 2028 
L 3169 3500 
L 3916 3500 
L 1716 1825 
L 3322 0 
L 2625 0 
L 1131 1709 
L 800 0 
L 225 0 
L 1172 4863 
z
" transform="scale(0.015625)"/>
      <path id="DejaVuSans-Oblique-69" d="M 1172 4863 
L 1747 4863 
L 1606 4134 
L 1031 4134 
L 1172 4863 
z
M 909 3500 
L 1484 3500 
L 800 0 
L 225 0 
L 909 3500 
z
" transform="scale(0.015625)"/>
      <path id="DejaVuSans-Oblique-6c" d="M 1172 4863 
L 1747 4863 
L 800 0 
L 225 0 
L 1172 4863 
z
" transform="scale(0.015625)"/>
      <path id="DejaVuSans-Oblique-20" transform="scale(0.015625)"/>
      <path id="DejaVuSans-Oblique-73" d="M 3200 3397 
L 3091 2853 
Q 2863 2978 2609 3040 
Q 2356 3103 2088 3103 
Q 1634 3103 1373 2948 
Q 1113 2794 1113 2528 
Q 1113 2219 1719 2053 
Q 1766 2041 1788 2034 
L 1972 1978 
Q 2547 1819 2739 1644 
Q 2931 1469 2931 1166 
Q 2931 609 2489 259 
Q 2047 -91 1331 -91 
Q 1053 -91 747 -37 
Q 441 16 72 128 
L 184 722 
Q 500 559 806 475 
Q 1113 391 1394 391 
Q 1816 391 2080 572 
Q 2344 753 2344 1031 
Q 2344 1331 1650 1516 
L 1591 1531 
L 1394 1581 
Q 956 1697 753 1886 
Q 550 2075 550 2369 
Q 550 2928 970 3256 
Q 1391 3584 2113 3584 
Q 2397 3584 2667 3537 
Q 2938 3491 3200 3397 
z
" transform="scale(0.015625)"/>
      <path id="DejaVuSans-Oblique-74" d="M 2706 3500 
L 2619 3053 
L 1472 3053 
L 1100 1153 
Q 1081 1047 1072 975 
Q 1063 903 1063 863 
Q 1063 663 1183 572 
Q 1303 481 1569 481 
L 2150 481 
L 2053 0 
L 1503 0 
Q 991 0 739 200 
Q 488 400 488 806 
Q 488 878 497 964 
Q 506 1050 525 1153 
L 897 3053 
L 409 3053 
L 500 3500 
L 978 3500 
L 1172 4494 
L 1747 4494 
L 1556 3500 
L 2706 3500 
z
" transform="scale(0.015625)"/>
      <path id="DejaVuSans-Oblique-61" d="M 3438 1997 
L 3047 0 
L 2472 0 
L 2578 531 
Q 2325 219 2001 64 
Q 1678 -91 1281 -91 
Q 834 -91 548 182 
Q 263 456 263 884 
Q 263 1497 752 1853 
Q 1241 2209 2100 2209 
L 2900 2209 
L 2931 2363 
Q 2938 2388 2941 2417 
Q 2944 2447 2944 2509 
Q 2944 2788 2717 2942 
Q 2491 3097 2081 3097 
Q 1800 3097 1504 3025 
Q 1209 2953 897 2809 
L 997 3341 
Q 1322 3463 1633 3523 
Q 1944 3584 2234 3584 
Q 2853 3584 3176 3315 
Q 3500 3047 3500 2534 
Q 3500 2431 3484 2292 
Q 3469 2153 3438 1997 
z
M 2816 1759 
L 2241 1759 
Q 1534 1759 1195 1570 
Q 856 1381 856 984 
Q 856 709 1029 553 
Q 1203 397 1509 397 
Q 1978 397 2328 733 
Q 2678 1069 2791 1631 
L 2816 1759 
z
" transform="scale(0.015625)"/>
      <path id="DejaVuSans-Oblique-62" d="M 3169 2138 
Q 3169 2591 2961 2847 
Q 2753 3103 2388 3103 
Q 2122 3103 1889 2973 
Q 1656 2844 1484 2597 
Q 1303 2338 1198 1995 
Q 1094 1653 1094 1313 
Q 1094 881 1298 636 
Q 1503 391 1863 391 
Q 2134 391 2365 517 
Q 2597 644 2772 891 
Q 2950 1147 3059 1487 
Q 3169 1828 3169 2138 
z
M 1381 2969 
Q 1594 3256 1914 3420 
Q 2234 3584 2584 3584 
Q 3122 3584 3439 3221 
Q 3756 2859 3756 2241 
Q 3756 1734 3570 1259 
Q 3384 784 3041 416 
Q 2816 172 2522 40 
Q 2228 -91 1906 -91 
Q 1566 -91 1316 65 
Q 1066 222 909 531 
L 806 0 
L 231 0 
L 1178 4863 
L 1753 4863 
L 1381 2969 
z
" transform="scale(0.015625)"/>
      <path id="DejaVuSans-Oblique-7a" d="M 744 3500 
L 3475 3500 
L 3372 2975 
L 738 459 
L 2913 459 
L 2822 0 
L -19 0 
L 84 525 
L 2719 3041 
L 653 3041 
L 744 3500 
z
" transform="scale(0.015625)"/>
      <path id="DejaVuSans-Oblique-6f" d="M 1625 -91 
Q 1009 -91 651 289 
Q 294 669 294 1325 
Q 294 1706 417 2101 
Q 541 2497 738 2766 
Q 1047 3184 1428 3384 
Q 1809 3584 2291 3584 
Q 2888 3584 3255 3212 
Q 3622 2841 3622 2241 
Q 3622 1825 3500 1412 
Q 3378 1000 3181 728 
Q 2875 309 2494 109 
Q 2113 -91 1625 -91 
z
M 891 1344 
Q 891 869 1089 633 
Q 1288 397 1691 397 
Q 2269 397 2648 901 
Q 3028 1406 3028 2181 
Q 3028 2634 2825 2865 
Q 2622 3097 2228 3097 
Q 1903 3097 1650 2945 
Q 1397 2794 1197 2484 
Q 1050 2253 970 1956 
Q 891 1659 891 1344 
z
" transform="scale(0.015625)"/>
      <path id="DejaVuSans-Oblique-6e" d="M 3566 2113 
L 3156 0 
L 2578 0 
L 2988 2091 
Q 3016 2238 3031 2350 
Q 3047 2463 3047 2528 
Q 3047 2791 2881 2937 
Q 2716 3084 2419 3084 
Q 1956 3084 1622 2776 
Q 1288 2469 1184 1941 
L 800 0 
L 225 0 
L 903 3500 
L 1478 3500 
L 1363 2950 
Q 1603 3253 1940 3418 
Q 2278 3584 2650 3584 
Q 3113 3584 3367 3334 
Q 3622 3084 3622 2631 
Q 3622 2519 3608 2391 
Q 3594 2263 3566 2113 
z
" transform="scale(0.015625)"/>
     </defs>
     <use xlink:href="#DejaVuSans-Oblique-53"/>
     <use xlink:href="#DejaVuSans-Oblique-6b" transform="translate(63.476562 0)"/>
     <use xlink:href="#DejaVuSans-Oblique-69" transform="translate(121.386719 0)"/>
     <use xlink:href="#DejaVuSans-Oblique-6c" transform="translate(149.169922 0)"/>
     <use xlink:href="#DejaVuSans-Oblique-6c" transform="translate(176.953125 0)"/>
     <use xlink:href="#DejaVuSans-Oblique-20" transform="translate(204.736328 0)"/>
     <use xlink:href="#DejaVuSans-Oblique-73" transform="translate(236.523438 0)"/>
     <use xlink:href="#DejaVuSans-Oblique-74" transform="translate(288.623047 0)"/>
     <use xlink:href="#DejaVuSans-Oblique-61" transform="translate(327.832031 0)"/>
     <use xlink:href="#DejaVuSans-Oblique-62" transform="translate(389.111328 0)"/>
     <use xlink:href="#DejaVuSans-Oblique-69" transform="translate(452.587891 0)"/>
     <use xlink:href="#DejaVuSans-Oblique-6c" transform="translate(480.371094 0)"/>
     <use xlink:href="#DejaVuSans-Oblique-69" transform="translate(508.154297 0)"/>
     <use xlink:href="#DejaVuSans-Oblique-7a" transform="translate(535.9375 0)"/>
     <use xlink:href="#DejaVuSans-Oblique-61" transform="translate(588.427734 0)"/>
     <use xlink:href="#DejaVuSans-Oblique-74" transform="translate(649.707031 0)"/>
     <use xlink:href="#DejaVuSans-Oblique-69" transform="translate(688.916016 0)"/>
     <use xlink:href="#DejaVuSans-Oblique-6f" transform="translate(716.699219 0)"/>
     <use xlink:href="#DejaVuSans-Oblique-6e" transform="translate(777.880859 0)"/>
    </g>
   </g>
   <g id="legend_1">
    <g id="patch_8">
     <path d="M 175.825781 377.944209 
L 574.207969 377.944209 
Q 576.007969 377.944209 576.007969 376.144209 
L 576.007969 350.623584 
Q 576.007969 348.823584 574.207969 348.823584 
L 175.825781 348.823584 
Q 174.025781 348.823584 174.025781 350.623584 
L 174.025781 376.144209 
Q 174.025781 377.944209 175.825781 377.944209 
z
" style="fill: #ffffff; opacity: 0.9; stroke: #cccccc; stroke-linejoin: miter"/>
    </g>
    <g id="line2d_33">
     <path d="M 177.625781 356.112178 
L 186.625781 356.112178 
L 195.625781 356.112178 
" style="fill: none; stroke: #0f6e56; stroke-width: 2.5; stroke-linecap: square"/>
     <g>
      <use xlink:href="#m0d916b904c" x="186.625781" y="356.112178" style="fill: #0f6e56; stroke: #0f6e56"/>
     </g>
    </g>
    <g id="text_17">
     <!-- Junior + AI (43% boost) -->
     <g transform="translate(202.825781 359.262178) scale(0.09 -0.09)">
      <defs>
       <path id="DejaVuSans-4a" d="M 628 4666 
L 1259 4666 
L 1259 325 
Q 1259 -519 939 -900 
Q 619 -1281 -91 -1281 
L -331 -1281 
L -331 -750 
L -134 -750 
Q 284 -750 456 -515 
Q 628 -281 628 325 
L 628 4666 
z
" transform="scale(0.015625)"/>
       <path id="DejaVuSans-6f" d="M 1959 3097 
Q 1497 3097 1228 2736 
Q 959 2375 959 1747 
Q 959 1119 1226 758 
Q 1494 397 1959 397 
Q 2419 397 2687 759 
Q 2956 1122 2956 1747 
Q 2956 2369 2687 2733 
Q 2419 3097 1959 3097 
z
M 1959 3584 
Q 2709 3584 3137 3096 
Q 3566 2609 3566 1747 
Q 3566 888 3137 398 
Q 2709 -91 1959 -91 
Q 1206 -91 779 398 
Q 353 888 353 1747 
Q 353 2609 779 3096 
Q 1206 3584 1959 3584 
z
" transform="scale(0.015625)"/>
       <path id="DejaVuSans-2b" d="M 2944 4013 
L 2944 2272 
L 4684 2272 
L 4684 1741 
L 2944 1741 
L 2944 0 
L 2419 0 
L 2419 1741 
L 678 1741 
L 678 2272 
L 2419 2272 
L 2419 4013 
L 2944 4013 
z
" transform="scale(0.015625)"/>
       <path id="DejaVuSans-41" d="M 2188 4044 
L 1331 1722 
L 3047 1722 
L 2188 4044 
z
M 1831 4666 
L 2547 4666 
L 4325 0 
L 3669 0 
L 3244 1197 
L 1141 1197 
L 716 0 
L 50 0 
L 1831 4666 
z
" transform="scale(0.015625)"/>
       <path id="DejaVuSans-49" d="M 628 4666 
L 1259 4666 
L 1259 0 
L 628 0 
L 628 4666 
z
" transform="scale(0.015625)"/>
       <path id="DejaVuSans-28" d="M 1984 4856 
Q 1566 4138 1362 3434 
Q 1159 2731 1159 2009 
Q 1159 1288 1364 580 
Q 1569 -128 1984 -844 
L 1484 -844 
Q 1016 -109 783 600 
Q 550 1309 550 2009 
Q 550 2706 781 3412 
Q 1013 4119 1484 4856 
L 1984 4856 
z
" transform="scale(0.015625)"/>
       <path id="DejaVuSans-25" d="M 4653 2053 
Q 4381 2053 4226 1822 
Q 4072 1591 4072 1178 
Q 4072 772 4226 539 
Q 4381 306 4653 306 
Q 4919 306 5073 539 
Q 5228 772 5228 1178 
Q 5228 1588 5073 1820 
Q 4919 2053 4653 2053 
z
M 4653 2450 
Q 5147 2450 5437 2106 
Q 5728 1763 5728 1178 
Q 5728 594 5436 251 
Q 5144 -91 4653 -91 
Q 4153 -91 3862 251 
Q 3572 594 3572 1178 
Q 3572 1766 3864 2108 
Q 4156 2450 4653 2450 
z
M 1428 4353 
Q 1159 4353 1004 4120 
Q 850 3888 850 3481 
Q 850 3069 1003 2837 
Q 1156 2606 1428 2606 
Q 1700 2606 1854 2837 
Q 2009 3069 2009 3481 
Q 2009 3884 1853 4118 
Q 1697 4353 1428 4353 
z
M 4250 4750 
L 4750 4750 
L 1831 -91 
L 1331 -91 
L 4250 4750 
z
M 1428 4750 
Q 1922 4750 2215 4408 
Q 2509 4066 2509 3481 
Q 2509 2891 2217 2550 
Q 1925 2209 1428 2209 
Q 931 2209 642 2551 
Q 353 2894 353 3481 
Q 353 4063 643 4406 
Q 934 4750 1428 4750 
z
" transform="scale(0.015625)"/>
       <path id="DejaVuSans-73" d="M 2834 3397 
L 2834 2853 
Q 2591 2978 2328 3040 
Q 2066 3103 1784 3103 
Q 1356 3103 1142 2972 
Q 928 2841 928 2578 
Q 928 2378 1081 2264 
Q 1234 2150 1697 2047 
L 1894 2003 
Q 2506 1872 2764 1633 
Q 3022 1394 3022 966 
Q 3022 478 2636 193 
Q 2250 -91 1575 -91 
Q 1294 -91 989 -36 
Q 684 19 347 128 
L 347 722 
Q 666 556 975 473 
Q 1284 391 1588 391 
Q 1994 391 2212 530 
Q 2431 669 2431 922 
Q 2431 1156 2273 1281 
Q 2116 1406 1581 1522 
L 1381 1569 
Q 847 1681 609 1914 
Q 372 2147 372 2553 
Q 372 3047 722 3315 
Q 1072 3584 1716 3584 
Q 2034 3584 2315 3537 
Q 2597 3491 2834 3397 
z
" transform="scale(0.015625)"/>
       <path id="DejaVuSans-29" d="M 513 4856 
L 1013 4856 
Q 1481 4119 1714 3412 
Q 1947 2706 1947 2009 
Q 1947 1309 1714 600 
Q 1481 -109 1013 -844 
L 513 -844 
Q 928 -128 1133 580 
Q 1338 1288 1338 2009 
Q 1338 2731 1133 3434 
Q 928 4138 513 4856 
z
" transform="scale(0.015625)"/>
      </defs>
      <use xlink:href="#DejaVuSans-4a"/>
      <use xlink:href="#DejaVuSans-75" transform="translate(29.492188 0)"/>
      <use xlink:href="#DejaVuSans-6e" transform="translate(92.871094 0)"/>
      <use xlink:href="#DejaVuSans-69" transform="translate(156.25 0)"/>
      <use xlink:href="#DejaVuSans-6f" transform="translate(184.033203 0)"/>
      <use xlink:href="#DejaVuSans-72" transform="translate(245.214844 0)"/>
      <use xlink:href="#DejaVuSans-20" transform="translate(286.328125 0)"/>
      <use xlink:href="#DejaVuSans-2b" transform="translate(318.115234 0)"/>
      <use xlink:href="#DejaVuSans-20" transform="translate(401.904297 0)"/>
      <use xlink:href="#DejaVuSans-41" transform="translate(433.691406 0)"/>
      <use xlink:href="#DejaVuSans-49" transform="translate(502.099609 0)"/>
      <use xlink:href="#DejaVuSans-20" transform="translate(531.591797 0)"/>
      <use xlink:href="#DejaVuSans-28" transform="translate(563.378906 0)"/>
      <use xlink:href="#DejaVuSans-34" transform="translate(602.392578 0)"/>
      <use xlink:href="#DejaVuSans-33" transform="translate(666.015625 0)"/>
      <use xlink:href="#DejaVuSans-25" transform="translate(729.638672 0)"/>
      <use xlink:href="#DejaVuSans-20" transform="translate(824.658203 0)"/>
      <use xlink:href="#DejaVuSans-62" transform="translate(856.445312 0)"/>
      <use xlink:href="#DejaVuSans-6f" transform="translate(919.921875 0)"/>
      <use xlink:href="#DejaVuSans-6f" transform="translate(981.103516 0)"/>
      <use xlink:href="#DejaVuSans-73" transform="translate(1042.285156 0)"/>
      <use xlink:href="#DejaVuSans-74" transform="translate(1094.384766 0)"/>
      <use xlink:href="#DejaVuSans-29" transform="translate(1133.59375 0)"/>
     </g>
    </g>
    <g id="line2d_34">
     <path d="M 177.625781 369.32249 
L 186.625781 369.32249 
L 195.625781 369.32249 
" style="fill: none; stroke: #185fa5; stroke-width: 2.5; stroke-linecap: square"/>
     <g>
      <use xlink:href="#mb644c65e3e" x="186.625781" y="369.32249" style="fill: #185fa5; stroke: #185fa5"/>
     </g>
    </g>
    <g id="text_18">
     <!-- Mid + AI (30% boost) -->
     <g transform="translate(202.825781 372.47249) scale(0.09 -0.09)">
      <defs>
       <path id="DejaVuSans-4d" d="M 628 4666 
L 1569 4666 
L 2759 1491 
L 3956 4666 
L 4897 4666 
L 4897 0 
L 4281 0 
L 4281 4097 
L 3078 897 
L 2444 897 
L 1241 4097 
L 1241 0 
L 628 0 
L 628 4666 
z
" transform="scale(0.015625)"/>
       <path id="DejaVuSans-64" d="M 2906 2969 
L 2906 4863 
L 3481 4863 
L 3481 0 
L 2906 0 
L 2906 525 
Q 2725 213 2448 61 
Q 2172 -91 1784 -91 
Q 1150 -91 751 415 
Q 353 922 353 1747 
Q 353 2572 751 3078 
Q 1150 3584 1784 3584 
Q 2172 3584 2448 3432 
Q 2725 3281 2906 2969 
z
M 947 1747 
Q 947 1113 1208 752 
Q 1469 391 1925 391 
Q 2381 391 2643 752 
Q 2906 1113 2906 1747 
Q 2906 2381 2643 2742 
Q 2381 3103 1925 3103 
Q 1469 3103 1208 2742 
Q 947 2381 947 1747 
z
" transform="scale(0.015625)"/>
      </defs>
      <use xlink:href="#DejaVuSans-4d"/>
      <use xlink:href="#DejaVuSans-69" transform="translate(86.279297 0)"/>
      <use xlink:href="#DejaVuSans-64" transform="translate(114.0625 0)"/>
      <use xlink:href="#DejaVuSans-20" transform="translate(177.539062 0)"/>
      <use xlink:href="#DejaVuSans-2b" transform="translate(209.326172 0)"/>
      <use xlink:href="#DejaVuSans-20" transform="translate(293.115234 0)"/>
      <use xlink:href="#DejaVuSans-41" transform="translate(324.902344 0)"/>
      <use xlink:href="#DejaVuSans-49" transform="translate(393.310547 0)"/>
      <use xlink:href="#DejaVuSans-20" transform="translate(422.802734 0)"/>
      <use xlink:href="#DejaVuSans-28" transform="translate(454.589844 0)"/>
      <use xlink:href="#DejaVuSans-33" transform="translate(493.603516 0)"/>
      <use xlink:href="#DejaVuSans-30" transform="translate(557.226562 0)"/>
      <use xlink:href="#DejaVuSans-25" transform="translate(620.849609 0)"/>
      <use xlink:href="#DejaVuSans-20" transform="translate(715.869141 0)"/>
      <use xlink:href="#DejaVuSans-62" transform="translate(747.65625 0)"/>
      <use xlink:href="#DejaVuSans-6f" transform="translate(811.132812 0)"/>
      <use xlink:href="#DejaVuSans-6f" transform="translate(872.314453 0)"/>
      <use xlink:href="#DejaVuSans-73" transform="translate(933.496094 0)"/>
      <use xlink:href="#DejaVuSans-74" transform="translate(985.595703 0)"/>
      <use xlink:href="#DejaVuSans-29" transform="translate(1024.804688 0)"/>
     </g>
    </g>
    <g id="line2d_35">
     <path d="M 326.360625 356.112178 
L 335.360625 356.112178 
L 344.360625 356.112178 
" style="fill: none; stroke: #534ab7; stroke-width: 2.5; stroke-linecap: square"/>
     <g>
      <use xlink:href="#m487aa5f052" x="335.360625" y="356.112178" style="fill: #534ab7; stroke: #534ab7"/>
     </g>
    </g>
    <g id="text_19">
     <!-- Senior + AI (17% boost) -->
     <g transform="translate(351.560625 359.262178) scale(0.09 -0.09)">
      <defs>
       <path id="DejaVuSans-37" d="M 525 4666 
L 3525 4666 
L 3525 4397 
L 1831 0 
L 1172 0 
L 2766 4134 
L 525 4134 
L 525 4666 
z
" transform="scale(0.015625)"/>
      </defs>
      <use xlink:href="#DejaVuSans-53"/>
      <use xlink:href="#DejaVuSans-65" transform="translate(63.476562 0)"/>
      <use xlink:href="#DejaVuSans-6e" transform="translate(125 0)"/>
      <use xlink:href="#DejaVuSans-69" transform="translate(188.378906 0)"/>
      <use xlink:href="#DejaVuSans-6f" transform="translate(216.162109 0)"/>
      <use xlink:href="#DejaVuSans-72" transform="translate(277.34375 0)"/>
      <use xlink:href="#DejaVuSans-20" transform="translate(318.457031 0)"/>
      <use xlink:href="#DejaVuSans-2b" transform="translate(350.244141 0)"/>
      <use xlink:href="#DejaVuSans-20" transform="translate(434.033203 0)"/>
      <use xlink:href="#DejaVuSans-41" transform="translate(465.820312 0)"/>
      <use xlink:href="#DejaVuSans-49" transform="translate(534.228516 0)"/>
      <use xlink:href="#DejaVuSans-20" transform="translate(563.720703 0)"/>
      <use xlink:href="#DejaVuSans-28" transform="translate(595.507812 0)"/>
      <use xlink:href="#DejaVuSans-31" transform="translate(634.521484 0)"/>
      <use xlink:href="#DejaVuSans-37" transform="translate(698.144531 0)"/>
      <use xlink:href="#DejaVuSans-25" transform="translate(761.767578 0)"/>
      <use xlink:href="#DejaVuSans-20" transform="translate(856.787109 0)"/>
      <use xlink:href="#DejaVuSans-62" transform="translate(888.574219 0)"/>
      <use xlink:href="#DejaVuSans-6f" transform="translate(952.050781 0)"/>
      <use xlink:href="#DejaVuSans-6f" transform="translate(1013.232422 0)"/>
      <use xlink:href="#DejaVuSans-73" transform="translate(1074.414062 0)"/>
      <use xlink:href="#DejaVuSans-74" transform="translate(1126.513672 0)"/>
      <use xlink:href="#DejaVuSans-29" transform="translate(1165.722656 0)"/>
     </g>
    </g>
    <g id="line2d_36">
     <path d="M 326.360625 369.32249 
L 335.360625 369.32249 
L 344.360625 369.32249 
" style="fill: none; stroke-dasharray: 5.55,2.4; stroke-dashoffset: 0; stroke: #5dcaa5; stroke-width: 1.5"/>
    </g>
    <g id="text_20">
     <!-- Junior baseline -->
     <g transform="translate(351.560625 372.47249) scale(0.09 -0.09)">
      <use xlink:href="#DejaVuSans-4a"/>
      <use xlink:href="#DejaVuSans-75" transform="translate(29.492188 0)"/>
      <use xlink:href="#DejaVuSans-6e" transform="translate(92.871094 0)"/>
      <use xlink:href="#DejaVuSans-69" transform="translate(156.25 0)"/>
      <use xlink:href="#DejaVuSans-6f" transform="translate(184.033203 0)"/>
      <use xlink:href="#DejaVuSans-72" transform="translate(245.214844 0)"/>
      <use xlink:href="#DejaVuSans-20" transform="translate(286.328125 0)"/>
      <use xlink:href="#DejaVuSans-62" transform="translate(318.115234 0)"/>
      <use xlink:href="#DejaVuSans-61" transform="translate(381.591797 0)"/>
      <use xlink:href="#DejaVuSans-73" transform="translate(442.871094 0)"/>
      <use xlink:href="#DejaVuSans-65" transform="translate(494.970703 0)"/>
      <use xlink:href="#DejaVuSans-6c" transform="translate(556.494141 0)"/>
      <use xlink:href="#DejaVuSans-69" transform="translate(584.277344 0)"/>
      <use xlink:href="#DejaVuSans-6e" transform="translate(612.060547 0)"/>
      <use xlink:href="#DejaVuSans-65" transform="translate(675.439453 0)"/>
     </g>
    </g>
    <g id="line2d_37">
     <path d="M 477.988125 356.112178 
L 486.988125 356.112178 
L 495.988125 356.112178 
" style="fill: none; stroke-dasharray: 5.55,2.4; stroke-dashoffset: 0; stroke: #85b7eb; stroke-width: 1.5"/>
    </g>
    <g id="text_21">
     <!-- Mid baseline -->
     <g transform="translate(503.188125 359.262178) scale(0.09 -0.09)">
      <use xlink:href="#DejaVuSans-4d"/>
      <use xlink:href="#DejaVuSans-69" transform="translate(86.279297 0)"/>
      <use xlink:href="#DejaVuSans-64" transform="translate(114.0625 0)"/>
      <use xlink:href="#DejaVuSans-20" transform="translate(177.539062 0)"/>
      <use xlink:href="#DejaVuSans-62" transform="translate(209.326172 0)"/>
      <use xlink:href="#DejaVuSans-61" transform="translate(272.802734 0)"/>
      <use xlink:href="#DejaVuSans-73" transform="translate(334.082031 0)"/>
      <use xlink:href="#DejaVuSans-65" transform="translate(386.181641 0)"/>
      <use xlink:href="#DejaVuSans-6c" transform="translate(447.705078 0)"/>
      <use xlink:href="#DejaVuSans-69" transform="translate(475.488281 0)"/>
      <use xlink:href="#DejaVuSans-6e" transform="translate(503.271484 0)"/>
      <use xlink:href="#DejaVuSans-65" transform="translate(566.650391 0)"/>
     </g>
    </g>
    <g id="line2d_38">
     <path d="M 477.988125 369.32249 
L 486.988125 369.32249 
L 495.988125 369.32249 
" style="fill: none; stroke-dasharray: 5.55,2.4; stroke-dashoffset: 0; stroke: #afa9ec; stroke-width: 1.5"/>
    </g>
    <g id="text_22">
     <!-- Senior baseline -->
     <g transform="translate(503.188125 372.47249) scale(0.09 -0.09)">
      <use xlink:href="#DejaVuSans-53"/>
      <use xlink:href="#DejaVuSans-65" transform="translate(63.476562 0)"/>
      <use xlink:href="#DejaVuSans-6e" transform="translate(125 0)"/>
      <use xlink:href="#DejaVuSans-69" transform="translate(188.378906 0)"/>
      <use xlink:href="#DejaVuSans-6f" transform="translate(216.162109 0)"/>
      <use xlink:href="#DejaVuSans-72" transform="translate(277.34375 0)"/>
      <use xlink:href="#DejaVuSans-20" transform="translate(318.457031 0)"/>
      <use xlink:href="#DejaVuSans-62" transform="translate(350.244141 0)"/>
      <use xlink:href="#DejaVuSans-61" transform="translate(413.720703 0)"/>
      <use xlink:href="#DejaVuSans-73" transform="translate(475 0)"/>
      <use xlink:href="#DejaVuSans-65" transform="translate(527.099609 0)"/>
      <use xlink:href="#DejaVuSans-6c" transform="translate(588.623047 0)"/>
      <use xlink:href="#DejaVuSans-69" transform="translate(616.40625 0)"/>
      <use xlink:href="#DejaVuSans-6e" transform="translate(644.189453 0)"/>
      <use xlink:href="#DejaVuSans-65" transform="translate(707.568359 0)"/>
     </g>
    </g>
   </g>
  </g>
 </g>
 <defs>
  <clipPath id="p789bcc4268">
   <rect x="45.716875" y="7.2" width="658.6" height="301.0032"/>
  </clipPath>
 </defs>
</svg>
